<svg xmlns="http://www.w3.org/2000/svg" width="1919" height="305" viewBox="0 0 1919 305" version="1.1"><path d="M 1064 5.984 C 1059.339 6.421, 1058.500 6.805, 1058.500 8.500 C 1058.500 10.295, 1059.167 10.500, 1065 10.500 C 1070.863 10.500, 1071.530 10.292, 1071.803 8.377 C 1072.181 5.725, 1070.910 5.335, 1064 5.984 M 1074.895 6.623 C 1074.384 7.241, 1074.254 8.499, 1074.607 9.418 C 1075.128 10.776, 1076.396 11.034, 1081.374 10.794 C 1086.778 10.535, 1087.536 10.246, 1087.808 8.342 C 1088.090 6.361, 1087.608 6.155, 1081.970 5.842 C 1078.234 5.634, 1075.460 5.940, 1074.895 6.623 M 1091.415 5.917 C 1091.187 6.146, 1091 7.405, 1091 8.714 C 1091 11, 1091.250 11.084, 1097.250 10.798 C 1102.864 10.530, 1103.533 10.271, 1103.820 8.250 C 1103.995 7.012, 1103.770 5.973, 1103.320 5.940 C 1098.681 5.600, 1091.745 5.586, 1091.415 5.917 M 1107.415 5.917 C 1107.187 6.146, 1107 7.405, 1107 8.714 C 1107 11, 1107.250 11.084, 1113.250 10.798 C 1118.864 10.530, 1119.533 10.271, 1119.820 8.250 C 1119.995 7.012, 1119.770 5.973, 1119.320 5.940 C 1114.681 5.600, 1107.745 5.586, 1107.415 5.917 M 1122.802 6.737 C 1122.238 7.418, 1122.046 8.677, 1122.375 9.535 C 1122.848 10.767, 1124.295 11.033, 1129.237 10.798 C 1134.864 10.530, 1135.532 10.271, 1135.820 8.250 C 1135.995 7.012, 1135.770 5.973, 1135.320 5.940 C 1128.195 5.417, 1123.656 5.706, 1122.802 6.737 M 1159.687 5.802 C 1154.345 6.079, 1153.900 6.282, 1154.187 8.302 C 1154.473 10.309, 1155.066 10.500, 1161 10.500 C 1166.863 10.500, 1167.530 10.292, 1167.803 8.377 C 1168.175 5.768, 1167.074 5.418, 1159.687 5.802 M 1175.687 5.802 C 1170.345 6.079, 1169.900 6.282, 1170.187 8.302 C 1170.473 10.309, 1171.066 10.500, 1177 10.500 C 1182.863 10.500, 1183.530 10.292, 1183.803 8.377 C 1184.175 5.768, 1183.074 5.418, 1175.687 5.802 M 1186.896 6.623 C 1186.384 7.241, 1186.254 8.499, 1186.607 9.418 C 1187.128 10.776, 1188.396 11.034, 1193.374 10.794 C 1198.860 10.531, 1199.533 10.265, 1199.820 8.250 C 1199.995 7.012, 1199.770 5.973, 1199.320 5.940 C 1192.583 5.446, 1187.647 5.717, 1186.896 6.623 M 1208.250 5.802 C 1203.400 6.081, 1203 6.295, 1203 8.600 C 1203 11.026, 1203.173 11.087, 1209.250 10.798 C 1214.746 10.536, 1215.537 10.244, 1215.803 8.377 C 1216.171 5.799, 1215.034 5.412, 1208.250 5.802 M 1219.415 5.917 C 1219.187 6.146, 1219 7.405, 1219 8.714 C 1219 11, 1219.250 11.084, 1225.250 10.798 C 1230.864 10.530, 1231.533 10.271, 1231.820 8.250 C 1231.995 7.012, 1231.770 5.973, 1231.320 5.940 C 1226.681 5.600, 1219.745 5.586, 1219.415 5.917 M 1240.250 5.747 C 1235.415 6.076, 1235 6.302, 1235 8.600 C 1235 11.026, 1235.173 11.087, 1241.250 10.798 C 1247.110 10.519, 1247.500 10.349, 1247.500 8.083 C 1247.500 5.318, 1247.335 5.264, 1240.250 5.747 M 1256 5.984 C 1251.339 6.421, 1250.500 6.805, 1250.500 8.500 C 1250.500 10.295, 1251.167 10.500, 1257 10.500 C 1262.863 10.500, 1263.530 10.292, 1263.803 8.377 C 1264.181 5.725, 1262.910 5.335, 1256 5.984 M 1272.187 5.799 C 1266.327 6.077, 1265.896 6.257, 1266.187 8.299 C 1266.473 10.309, 1267.064 10.500, 1272.986 10.500 C 1278.510 10.500, 1279.526 10.225, 1279.830 8.644 C 1280.357 5.909, 1279.173 5.468, 1272.187 5.799 M 1303.687 5.751 C 1298.358 6.074, 1297.900 6.286, 1298.187 8.302 C 1298.473 10.309, 1299.066 10.500, 1305 10.500 C 1311.207 10.500, 1311.500 10.391, 1311.500 8.083 C 1311.500 5.301, 1311.431 5.281, 1303.687 5.751 M 1314.800 6.737 C 1314.237 7.418, 1314.046 8.677, 1314.375 9.535 C 1314.848 10.767, 1316.295 11.033, 1321.237 10.798 C 1326.780 10.534, 1327.535 10.252, 1327.808 8.342 C 1328.090 6.361, 1327.608 6.155, 1321.970 5.842 C 1317.930 5.617, 1315.474 5.924, 1314.800 6.737 M 1330.896 6.623 C 1330.384 7.241, 1330.254 8.499, 1330.607 9.418 C 1331.128 10.776, 1332.396 11.034, 1337.374 10.794 C 1342.860 10.531, 1343.533 10.265, 1343.820 8.250 C 1343.995 7.012, 1343.770 5.973, 1343.320 5.940 C 1336.583 5.446, 1331.647 5.717, 1330.896 6.623 M 1347.415 5.917 C 1347.187 6.146, 1347 7.405, 1347 8.714 C 1347 11, 1347.250 11.084, 1353.250 10.798 C 1358.864 10.530, 1359.533 10.271, 1359.820 8.250 C 1359.995 7.012, 1359.770 5.973, 1359.320 5.940 C 1354.681 5.600, 1347.745 5.586, 1347.415 5.917 M 1363.415 5.917 C 1363.187 6.146, 1363 7.405, 1363 8.714 C 1363 11, 1363.250 11.084, 1369.250 10.798 C 1374.864 10.530, 1375.533 10.271, 1375.820 8.250 C 1375.995 7.012, 1375.770 5.973, 1375.320 5.940 C 1370.681 5.600, 1363.745 5.586, 1363.415 5.917 M 1415.687 5.802 C 1410.345 6.079, 1409.900 6.282, 1410.187 8.302 C 1410.473 10.309, 1411.066 10.500, 1417 10.500 C 1422.863 10.500, 1423.530 10.292, 1423.803 8.377 C 1424.175 5.768, 1423.074 5.418, 1415.687 5.802 M 1431.687 5.802 C 1426.345 6.079, 1425.900 6.282, 1426.187 8.302 C 1426.473 10.309, 1427.066 10.500, 1433 10.500 C 1438.863 10.500, 1439.530 10.292, 1439.803 8.377 C 1440.175 5.768, 1439.074 5.418, 1431.687 5.802 M 1448 5.984 C 1442.723 6.479, 1442.378 6.751, 1442.850 10.048 C 1442.942 10.687, 1445.435 10.979, 1449.250 10.798 C 1454.746 10.536, 1455.537 10.244, 1455.803 8.377 C 1456.181 5.725, 1454.910 5.335, 1448 5.984 M 1459.415 5.917 C 1459.187 6.146, 1459 7.405, 1459 8.714 C 1459 11, 1459.250 11.084, 1465.250 10.798 C 1470.864 10.530, 1471.533 10.271, 1471.820 8.250 C 1471.995 7.012, 1471.770 5.973, 1471.320 5.940 C 1466.681 5.600, 1459.745 5.586, 1459.415 5.917 M 1480.250 5.802 C 1475.400 6.081, 1475 6.295, 1475 8.600 C 1475 11.026, 1475.173 11.087, 1481.250 10.798 C 1486.746 10.536, 1487.537 10.244, 1487.803 8.377 C 1488.171 5.799, 1487.034 5.412, 1480.250 5.802 M 1496.250 5.802 C 1491.400 6.081, 1491 6.295, 1491 8.600 C 1491 11.026, 1491.173 11.087, 1497.250 10.798 C 1502.746 10.536, 1503.537 10.244, 1503.803 8.377 C 1504.171 5.799, 1503.034 5.412, 1496.250 5.802 M 1512 5.922 C 1507.359 6.410, 1506.500 6.813, 1506.500 8.500 C 1506.500 10.295, 1507.167 10.500, 1513 10.500 C 1519.207 10.500, 1519.500 10.391, 1519.500 8.083 C 1519.500 5.248, 1519.207 5.164, 1512 5.922 M 1543.687 5.751 C 1538.358 6.074, 1537.900 6.286, 1538.187 8.302 C 1538.473 10.309, 1539.066 10.500, 1545 10.500 C 1551.207 10.500, 1551.500 10.391, 1551.500 8.083 C 1551.500 5.301, 1551.431 5.281, 1543.687 5.751 M 1570.802 6.737 C 1570.238 7.418, 1570.046 8.677, 1570.375 9.535 C 1570.848 10.767, 1572.295 11.033, 1577.237 10.798 C 1582.864 10.530, 1583.532 10.271, 1583.820 8.250 C 1583.995 7.012, 1583.770 5.973, 1583.320 5.940 C 1576.195 5.417, 1571.656 5.706, 1570.802 6.737 M 1587.415 5.917 C 1587.187 6.146, 1587 7.405, 1587 8.714 C 1587 11, 1587.250 11.084, 1593.250 10.798 C 1598.864 10.530, 1599.533 10.271, 1599.820 8.250 C 1599.995 7.012, 1599.770 5.973, 1599.320 5.940 C 1594.681 5.600, 1587.745 5.586, 1587.415 5.917 M 1603.438 5.896 C 1603.197 6.136, 1603 7.405, 1603 8.714 C 1603 11, 1603.250 11.084, 1609.250 10.798 C 1614.864 10.530, 1615.533 10.271, 1615.820 8.250 C 1615.995 7.012, 1615.770 5.979, 1615.320 5.953 C 1608.599 5.567, 1603.789 5.544, 1603.438 5.896 M 1619.413 5.917 C 1619.186 6.146, 1619 7.405, 1619 8.714 C 1619 11, 1619.250 11.084, 1625.250 10.798 C 1630.780 10.534, 1631.535 10.251, 1631.808 8.342 C 1632.090 6.361, 1631.608 6.155, 1625.971 5.842 C 1622.592 5.654, 1619.641 5.688, 1619.413 5.917 M 1634.800 6.737 C 1634.237 7.418, 1634.046 8.677, 1634.375 9.535 C 1634.848 10.767, 1636.295 11.033, 1641.237 10.798 C 1646.780 10.534, 1647.535 10.252, 1647.808 8.342 C 1648.090 6.361, 1647.608 6.155, 1641.970 5.842 C 1637.930 5.617, 1635.474 5.924, 1634.800 6.737 M 1655.687 5.802 C 1650.345 6.079, 1649.900 6.282, 1650.187 8.302 C 1650.473 10.309, 1651.066 10.500, 1657 10.500 C 1662.863 10.500, 1663.530 10.292, 1663.803 8.377 C 1664.175 5.768, 1663.074 5.418, 1655.687 5.802 M 1666.816 6.120 C 1666.259 6.461, 1665.966 7.586, 1666.165 8.620 C 1666.475 10.230, 1667.460 10.500, 1673.014 10.500 C 1679.266 10.500, 1679.500 10.410, 1679.500 8 C 1679.500 5.619, 1679.222 5.500, 1673.665 5.500 C 1670.455 5.500, 1667.373 5.779, 1666.816 6.120 M 1687.687 5.751 C 1682.358 6.074, 1681.900 6.286, 1682.187 8.302 C 1682.473 10.309, 1683.066 10.500, 1689 10.500 C 1695.207 10.500, 1695.500 10.391, 1695.500 8.083 C 1695.500 5.301, 1695.431 5.281, 1687.687 5.751 M 1698.803 6.737 C 1698.238 7.418, 1698.046 8.677, 1698.375 9.535 C 1698.848 10.767, 1700.295 11.033, 1705.237 10.798 C 1711.164 10.516, 1711.500 10.366, 1711.500 8.011 C 1711.500 5.644, 1711.213 5.521, 1705.665 5.511 C 1702.237 5.504, 1699.407 6.010, 1698.803 6.737 M 1715.419 5.917 C 1715.188 6.146, 1715 7.405, 1715 8.714 C 1715 11, 1715.250 11.084, 1721.250 10.798 C 1726.864 10.530, 1727.533 10.271, 1727.820 8.250 C 1728.008 6.924, 1727.597 5.959, 1726.820 5.900 C 1722.259 5.555, 1715.773 5.564, 1715.419 5.917 M 1731.415 5.917 C 1731.187 6.146, 1731 7.405, 1731 8.714 C 1731 11, 1731.250 11.084, 1737.250 10.798 C 1742.864 10.530, 1743.533 10.271, 1743.820 8.250 C 1743.995 7.012, 1743.770 5.973, 1743.320 5.940 C 1738.681 5.600, 1731.745 5.586, 1731.415 5.917 M 1752.250 5.802 C 1747.400 6.081, 1747 6.295, 1747 8.600 C 1747 11.026, 1747.173 11.087, 1753.250 10.798 C 1758.746 10.536, 1759.537 10.244, 1759.803 8.377 C 1760.171 5.799, 1759.034 5.412, 1752.250 5.802 M 1768 5.984 C 1763.339 6.421, 1762.500 6.805, 1762.500 8.500 C 1762.500 10.295, 1763.167 10.500, 1769 10.500 C 1774.863 10.500, 1775.530 10.292, 1775.803 8.377 C 1776.181 5.725, 1774.910 5.335, 1768 5.984 M 1783.687 5.751 C 1778.358 6.074, 1777.900 6.286, 1778.187 8.302 C 1778.473 10.309, 1779.066 10.500, 1785 10.500 C 1791.207 10.500, 1791.500 10.391, 1791.500 8.083 C 1791.500 5.301, 1791.431 5.281, 1783.687 5.751 M 1800.187 5.799 C 1794.327 6.077, 1793.896 6.257, 1794.187 8.299 C 1794.473 10.309, 1795.064 10.500, 1800.986 10.500 C 1806.510 10.500, 1807.526 10.225, 1807.830 8.644 C 1808.357 5.909, 1807.173 5.468, 1800.187 5.799 M 1810.803 6.120 C 1810.253 6.461, 1809.966 7.586, 1810.165 8.620 C 1810.475 10.230, 1811.460 10.500, 1817.014 10.500 C 1822.979 10.500, 1823.526 10.319, 1823.820 8.250 C 1823.995 7.012, 1823.770 5.973, 1823.320 5.940 C 1817.827 5.537, 1811.600 5.626, 1810.803 6.120 M 1826.802 6.737 C 1826.238 7.418, 1826.046 8.677, 1826.375 9.535 C 1826.848 10.767, 1828.295 11.033, 1833.237 10.798 C 1838.864 10.530, 1839.532 10.271, 1839.820 8.250 C 1839.995 7.012, 1839.770 5.973, 1839.320 5.940 C 1832.195 5.417, 1827.656 5.706, 1826.802 6.737 M 1843.415 5.917 C 1843.187 6.146, 1843 7.405, 1843 8.714 C 1843 11, 1843.250 11.084, 1849.250 10.798 C 1854.864 10.530, 1855.533 10.271, 1855.820 8.250 C 1855.995 7.012, 1855.770 5.973, 1855.320 5.940 C 1850.681 5.600, 1843.745 5.586, 1843.415 5.917 M 1890.803 6.737 C 1888.705 9.265, 1890.742 11.133, 1895.241 10.808 C 1898.783 10.552, 1899.554 10.121, 1899.820 8.250 C 1899.995 7.012, 1899.770 5.965, 1899.320 5.923 C 1894.314 5.453, 1891.658 5.707, 1890.803 6.737 M 1042.180 8.250 C 1042.474 10.320, 1043.021 10.500, 1049 10.500 C 1054.979 10.500, 1055.526 10.320, 1055.820 8.250 C 1056.125 6.097, 1055.832 6, 1049 6 C 1042.168 6, 1041.875 6.097, 1042.180 8.250 M 1138.180 8.250 C 1138.474 10.320, 1139.021 10.500, 1145 10.500 C 1150.979 10.500, 1151.526 10.320, 1151.820 8.250 C 1152.125 6.097, 1151.832 6, 1145 6 C 1138.168 6, 1137.875 6.097, 1138.180 8.250 M 1282.180 8.250 C 1282.474 10.320, 1283.021 10.500, 1289 10.500 C 1294.979 10.500, 1295.526 10.320, 1295.820 8.250 C 1296.125 6.097, 1295.832 6, 1289 6 C 1282.168 6, 1281.875 6.097, 1282.180 8.250 M 1378.336 7.567 C 1377.329 10.190, 1379.425 11.123, 1385.604 10.804 C 1390.848 10.534, 1391.535 10.251, 1391.820 8.250 C 1392.123 6.112, 1391.812 6, 1385.538 6 C 1380.467 6, 1378.798 6.363, 1378.336 7.567 M 1394.180 8.250 C 1394.474 10.320, 1395.021 10.500, 1401 10.500 C 1406.979 10.500, 1407.526 10.320, 1407.820 8.250 C 1408.125 6.097, 1407.832 6, 1401 6 C 1394.168 6, 1393.875 6.097, 1394.180 8.250 M 1522.180 8.250 C 1522.474 10.320, 1523.021 10.500, 1529 10.500 C 1534.979 10.500, 1535.526 10.320, 1535.820 8.250 C 1536.125 6.097, 1535.832 6, 1529 6 C 1522.168 6, 1521.875 6.097, 1522.180 8.250 M 1554.180 8.250 C 1554.474 10.320, 1555.021 10.500, 1561 10.500 C 1566.979 10.500, 1567.526 10.320, 1567.820 8.250 C 1568.125 6.097, 1567.832 6, 1561 6 C 1554.168 6, 1553.875 6.097, 1554.180 8.250 M 1859 8.548 C 1859 11.038, 1859.141 11.089, 1865.250 10.798 C 1870.864 10.530, 1871.533 10.271, 1871.820 8.250 C 1872.123 6.113, 1871.810 6, 1865.570 6 C 1859.196 6, 1859 6.076, 1859 8.548 M 1875 8.548 C 1875 11.038, 1875.141 11.089, 1881.250 10.798 C 1886.864 10.530, 1887.533 10.271, 1887.820 8.250 C 1888.123 6.113, 1887.810 6, 1881.570 6 C 1875.196 6, 1875 6.076, 1875 8.548 M 1006.170 12.413 C 1002.923 16.935, 1002.249 19.418, 1003.979 20.487 C 1004.518 20.820, 1005.868 20.606, 1006.979 20.011 L 1009 18.930 1009 155.665 C 1009 262.014, 1008.733 292.133, 1007.800 291.200 C 1006.062 289.462, 1003 289.727, 1003 291.616 C 1003 293.438, 1009.720 303, 1011 303 C 1012.325 303, 1020.095 292.781, 1019.680 291.584 C 1019.474 290.988, 1018.111 290.518, 1016.652 290.539 L 1014 290.579 1014 154.667 C 1014 32.014, 1014.151 18.881, 1015.550 20.042 C 1016.829 21.103, 1017.382 21.047, 1018.704 19.725 C 1020.175 18.253, 1019.989 17.704, 1016.448 13.061 C 1014.326 10.277, 1011.858 8, 1010.964 8 C 1010.070 8, 1007.913 9.986, 1006.170 12.413 M 122.512 33.750 C 121.843 38.963, 119.545 52.996, 112.976 92 C 111.818 98.875, 109.824 110.968, 108.546 118.873 C 107.184 127.287, 105.683 133.578, 104.925 134.046 C 104.213 134.486, 100.901 135.148, 97.565 135.516 C 94.229 135.885, 85.425 137.293, 78 138.647 C 70.575 140, 57.367 142.207, 48.649 143.553 C 39.930 144.898, 28.230 146.869, 22.649 147.934 C 17.067 148.998, 9.887 150.159, 6.693 150.514 C 2.922 150.932, 1.023 151.569, 1.275 152.329 C 1.490 152.973, 2.753 153.608, 4.082 153.740 C 7.995 154.130, 39.249 159.267, 66.500 164.001 C 73.100 165.147, 84.683 167.049, 92.239 168.228 L 105.979 170.370 106.471 173.435 C 106.742 175.121, 107.880 181.900, 109 188.500 C 110.120 195.100, 111.959 206.125, 113.086 213 C 114.214 219.875, 115.761 229.100, 116.525 233.500 C 117.289 237.900, 118.854 247.575, 120.002 255 C 122.721 272.581, 123.299 275.162, 124.500 275.078 C 125.050 275.040, 125.563 273.994, 125.641 272.754 C 125.719 271.514, 127.209 262.175, 128.952 252 C 130.696 241.825, 133.182 226.975, 134.477 219 C 135.772 211.025, 138.107 196.739, 139.666 187.253 L 142.500 170.006 157.500 170 C 177.223 169.992, 271.378 168.245, 320 166.985 C 412.630 164.585, 483.808 162.995, 542 162.026 C 620.805 160.713, 686.015 159.310, 729 158.003 C 773.753 156.642, 858.585 155.018, 889.269 154.936 C 904.361 154.896, 913.812 154.505, 913.460 153.935 C 913.110 153.369, 919.487 153, 929.608 153 C 938.807 153, 946.146 152.826, 945.917 152.614 C 945.151 151.905, 890.056 150.035, 839.500 149.001 C 812 148.439, 774.875 147.527, 757 146.975 C 719.754 145.824, 610.337 143.541, 519 142.009 C 484.625 141.432, 441.650 140.516, 423.500 139.974 C 379.949 138.672, 312.146 137.222, 239.500 136.039 C 207.050 135.511, 171.915 134.789, 161.421 134.436 L 142.343 133.794 140.693 123.147 C 138.710 110.349, 133.904 81.745, 130.501 62.500 C 129.140 54.800, 127.479 44.112, 126.811 38.750 C 125.461 27.923, 123.547 25.697, 122.512 33.750 M 432.978 45.833 C 432.382 46.037, 432 54.505, 432 67.528 C 432 92.426, 430.452 88.778, 446.851 102.522 C 463.793 116.721, 466.633 118.005, 473.352 114.500 C 477.134 112.527, 501.670 91.303, 502.416 89.358 C 502.737 88.521, 503 78.423, 503 66.918 L 503 46 495.523 46 L 488.045 46 487.773 64.204 L 487.500 82.407 478.067 90.704 C 472.879 95.267, 468.221 99, 467.717 99 C 467.212 99, 462.570 95.361, 457.400 90.914 L 448 82.828 448 64.496 L 448 46.164 440.978 45.832 C 437.116 45.649, 433.516 45.650, 432.978 45.833 M 525.996 45.833 C 525.448 46.017, 525 49.279, 525 53.083 L 525 60 539 60 L 553 60 553 79.972 L 553 99.944 539.250 100.222 L 525.500 100.500 525.500 108 L 525.500 115.500 560.433 115.763 C 580.655 115.916, 595.605 115.643, 595.933 115.116 C 596.245 114.616, 596.350 110.987, 596.166 107.051 L 595.832 99.897 582.166 100.198 L 568.500 100.500 568.692 81 C 568.797 70.275, 568.910 61.175, 568.942 60.778 C 568.974 60.381, 575.132 59.931, 582.626 59.778 L 596.252 59.500 596.189 53.750 C 596.154 50.587, 596.097 47.561, 596.063 47.025 C 596.005 46.133, 528.530 44.985, 525.996 45.833 M 657 46 C 634.215 46.374, 625.909 46.837, 624.165 47.831 C 622.881 48.563, 620.978 51.038, 619.937 53.331 C 618.259 57.025, 618.041 60.093, 618.022 80.282 C 617.998 105.335, 618.347 107.235, 623.942 112.500 L 627.129 115.500 658.315 115.500 L 689.500 115.500 689.526 109 C 689.540 105.425, 689.379 101.938, 689.169 101.250 C 688.875 100.290, 682.437 100, 661.393 100 L 634 100 634 94 L 634 88 661.500 88 L 689 88 689 81 L 689 74 661.500 74 L 634 74 634 67 L 634 60 662 60 L 690 60 690 53.622 C 690 49.652, 689.528 46.916, 688.750 46.372 C 688.063 45.893, 673.775 45.725, 657 46 M 711.996 45.833 C 711.448 46.017, 711 49.279, 711 53.083 L 711 60 725 60 L 739 60 739 88 L 739 116 746.433 116 C 753.116 116, 753.933 115.787, 754.535 113.890 C 754.903 112.730, 754.879 101.565, 754.481 89.080 C 754.083 76.595, 754.073 64.944, 754.458 63.190 L 755.159 60 768.579 60 L 782 60 782 53.025 L 782 46.051 747.496 45.775 C 728.518 45.624, 712.543 45.650, 711.996 45.833 M 158.547 49.093 C 153.272 53.724, 152.807 56.633, 153.174 82.679 C 153.536 108.443, 153.608 108.726, 160.990 113.750 C 164.190 115.928, 165.057 116, 188.180 116 C 214.521 116, 216.614 115.625, 221.297 110.059 L 224 106.847 224 81.374 C 224 53.773, 223.753 52.311, 218.385 48.088 C 215.843 46.088, 214.594 46, 188.900 46 L 162.070 46 158.547 49.093 M 246.775 47.250 C 246.534 47.938, 246.541 63.688, 246.792 82.250 L 247.247 116 254.623 116 L 262 116 262 102 L 262 88 265.207 88 C 267.992 88, 270.276 89.845, 282.535 102 L 296.655 116 306.827 116 L 317 116 317 108 L 317 100 309.719 100 L 302.437 100 296.500 94 L 290.563 88 299.031 87.996 C 305.666 87.993, 308.193 87.570, 310.701 86.040 C 315.903 82.869, 317 79.552, 317 67 C 317 54.920, 316.065 51.769, 311.385 48.088 C 308.824 46.073, 307.650 46, 277.972 46 C 254.266 46, 247.113 46.287, 246.775 47.250 M 339 52.959 L 339 59.944 352.750 60.222 L 366.500 60.500 366.771 80.222 L 367.042 99.943 353.271 100.222 L 339.500 100.500 339.500 108 L 339.500 115.500 375 115.500 L 410.500 115.500 410.809 110.053 C 411.403 99.583, 412.019 100, 395.960 100 L 381.958 100 382.229 80.250 L 382.500 60.500 396.500 60 L 410.500 59.500 410.484 53 L 410.468 46.500 374.734 46.237 L 339 45.975 339 52.959 M 1047.714 53.619 C 1047.321 54.012, 1047 72.449, 1047 94.591 L 1047 134.848 1055.089 135.174 C 1060.547 135.394, 1063.502 135.107, 1064.176 134.293 C 1064.751 133.597, 1065.095 127.458, 1064.988 119.793 C 1064.733 101.468, 1064.382 103, 1068.835 103 C 1072.459 103, 1073.550 103.883, 1088.601 119 L 1104.531 135 1115.766 135 C 1121.944 135, 1127.338 135.113, 1127.750 135.250 C 1128.162 135.387, 1128.630 131.563, 1128.789 126.750 L 1129.078 118 1120.765 118 L 1112.453 118 1104.755 110.250 L 1097.057 102.500 1107.279 102.500 C 1118.557 102.500, 1122.307 101.162, 1126.395 95.677 C 1128.311 93.107, 1128.500 91.535, 1128.500 78.177 C 1128.500 64.411, 1128.356 63.297, 1126.171 60.235 C 1121.412 53.562, 1121.229 53.532, 1082.964 53.203 C 1063.969 53.039, 1048.107 53.227, 1047.714 53.619 M 1168.728 53.961 C 1164.126 54.853, 1160.345 58.181, 1157.890 63.500 C 1156.241 67.072, 1156.042 70.391, 1156.022 94.538 C 1156.001 120.614, 1156.080 121.735, 1158.250 126.030 C 1159.487 128.480, 1162.029 131.500, 1163.898 132.742 C 1167.267 134.981, 1167.600 135, 1203.148 135 L 1239 135 1239 126.500 L 1239 118 1206.500 118 L 1174 118 1174 110.500 L 1174 103 1206.539 103 L 1239.078 103 1238.789 94.250 L 1238.500 85.500 1206.250 85.236 L 1174 84.972 1174 77.986 L 1174 71 1206.421 71 L 1238.842 71 1239.171 63.420 C 1239.352 59.250, 1239.140 55.200, 1238.700 54.420 C 1238.033 53.235, 1232.488 53.019, 1205.200 53.115 C 1187.215 53.178, 1170.803 53.559, 1168.728 53.961 M 1278.685 53.968 C 1273.859 54.902, 1270.215 57.609, 1267.851 62.017 C 1266.325 64.862, 1266 67.721, 1266 78.284 C 1266 92.769, 1266.751 95.182, 1272.669 99.698 L 1276.340 102.500 1303.712 102.809 L 1331.085 103.118 1330.793 110.309 L 1330.500 117.500 1298.550 117.764 C 1274.524 117.963, 1266.403 118.335, 1265.806 119.264 C 1265.369 119.944, 1265.065 123.763, 1265.130 127.750 L 1265.248 135 1300.723 135 C 1339.943 135, 1340.812 134.876, 1345.270 128.627 C 1347.268 125.826, 1347.534 124.074, 1347.825 111.808 C 1348.212 95.450, 1347.214 92.360, 1340.077 87.834 L 1335.511 84.938 1309.365 85.219 L 1283.219 85.500 1283.360 78.500 L 1283.500 71.500 1315.671 71.236 L 1347.843 70.973 1348.196 63.236 C 1348.391 58.981, 1348.146 54.938, 1347.653 54.250 C 1346.964 53.290, 1339.292 53.027, 1314.628 53.115 C 1296.957 53.178, 1280.783 53.562, 1278.685 53.968 M 1386.771 54.191 C 1382.155 55.426, 1377.454 60.599, 1375.983 66.063 C 1375.271 68.708, 1374.991 79.577, 1375.191 96.826 C 1375.478 121.620, 1375.645 123.746, 1377.554 126.997 C 1378.684 128.920, 1381.113 131.507, 1382.952 132.747 C 1386.267 134.980, 1386.608 135, 1422.148 135 L 1458 135 1458 126.500 L 1458 118 1425.500 118 L 1393 118 1393 110.500 L 1393 103 1425.539 103 L 1458.078 103 1457.789 94.250 L 1457.500 85.500 1425.250 85.236 L 1393 84.972 1393 77.986 L 1393 71 1425.539 71 L 1458.078 71 1457.789 62.250 L 1457.500 53.500 1424 53.347 C 1404.345 53.257, 1388.959 53.606, 1386.771 54.191 M 1496.500 54.073 C 1492.513 55.336, 1490.770 56.777, 1487.628 61.406 L 1485 65.279 1485 100.063 L 1485 134.848 1493.023 135.174 C 1497.436 135.353, 1501.486 135.350, 1502.023 135.167 C 1502.604 134.968, 1503 128.381, 1503 118.917 L 1503 103 1526.500 103 L 1550 103 1550 118.924 L 1550 134.848 1558.089 135.174 C 1563.773 135.403, 1566.492 135.120, 1567.234 134.223 C 1567.952 133.355, 1568.125 122.077, 1567.775 98.969 L 1567.261 64.992 1564.635 61.024 C 1559.769 53.671, 1559.060 53.524, 1527.500 53.312 C 1511.987 53.207, 1498.162 53.547, 1496.500 54.073 M 1595.250 53.662 C 1594.279 54.054, 1594 63.170, 1594 94.507 L 1594 134.848 1602.250 135.200 C 1606.787 135.394, 1610.838 135.401, 1611.250 135.217 C 1611.662 135.033, 1612 127.709, 1612 118.941 L 1612 103 1616.239 103 C 1620.378 103, 1620.854 103.375, 1636.489 118.958 L 1652.500 134.915 1663.500 135.016 C 1669.550 135.071, 1675.063 135.091, 1675.750 135.058 C 1676.647 135.016, 1677 132.602, 1677 126.500 L 1677 118 1668.727 118 L 1660.453 118 1652.755 110.250 L 1645.057 102.500 1655.354 102.500 C 1664.829 102.500, 1665.971 102.288, 1669.669 99.839 C 1675.761 95.805, 1677 92.228, 1677 78.664 C 1677 72.320, 1676.522 65.863, 1675.939 64.315 C 1674.360 60.128, 1669.065 55.113, 1665.044 53.996 C 1661.480 53.006, 1597.634 52.700, 1595.250 53.662 M 1713.845 54.769 C 1711.835 55.721, 1708.910 58.048, 1707.345 59.940 L 1704.500 63.380 1704.213 93.440 L 1703.926 123.500 1706.679 127.739 C 1711.355 134.937, 1711.220 134.915, 1751.076 135.041 L 1786.500 135.153 1786.789 126.576 L 1787.078 118 1754.539 118 L 1722 118 1722 94.462 L 1722 70.925 1754.250 71.042 L 1786.500 71.160 1786.500 62.330 L 1786.500 53.500 1752 53.269 C 1721.063 53.062, 1717.123 53.217, 1713.845 54.769 M 1814.667 53.667 C 1814.300 54.033, 1814 72.448, 1814 94.588 L 1814 134.842 1821.750 135.196 C 1826.013 135.391, 1830.082 135.130, 1830.793 134.616 C 1831.765 133.916, 1832.051 129.922, 1831.943 118.591 L 1831.800 103.500 1854.874 103.232 L 1877.949 102.963 1878.225 118.732 L 1878.500 134.500 1887.261 134.789 L 1896.023 135.078 1895.761 94.289 L 1895.500 53.500 1888.158 53.204 C 1883.429 53.014, 1880.290 53.345, 1879.340 54.133 C 1878.131 55.136, 1877.922 58.085, 1878.182 70.429 L 1878.500 85.500 1854.939 85.500 L 1831.379 85.500 1831.815 71.820 C 1832.055 64.296, 1831.962 56.983, 1831.607 55.570 C 1830.983 53.084, 1830.706 53, 1823.148 53 C 1818.850 53, 1815.033 53.300, 1814.667 53.667 M 169.688 60.646 C 169.309 61.024, 169 70.033, 169 80.667 L 169 100 189.021 100 L 209.042 100 208.771 80.250 L 208.500 60.500 189.438 60.229 C 178.953 60.080, 170.066 60.268, 169.688 60.646 M 262 67 L 262 74 282 74 L 302 74 302 67 L 302 60 282 60 L 262 60 262 67 M 1064.506 71.991 C 1064.157 72.555, 1063.997 75.826, 1064.151 79.259 L 1064.432 85.500 1088.135 85.500 L 1111.837 85.500 1111.669 78.500 L 1111.500 71.500 1088.320 71.232 C 1073.252 71.057, 1064.918 71.323, 1064.506 71.991 M 1502.829 78.250 L 1502.500 85.500 1526.250 85.215 L 1550 84.931 1550 77.965 L 1550 71 1526.579 71 L 1503.158 71 1502.829 78.250 M 1612 78 L 1612 85 1635.500 85 L 1659 85 1659 78 L 1659 71 1635.500 71 L 1612 71 1612 78 M 1047.214 210.428 C 1047.490 245.604, 1047.572 246.953, 1049.594 249.678 C 1050.746 251.230, 1053.446 253.508, 1055.594 254.741 C 1059.460 256.958, 1059.860 256.979, 1094.500 256.741 L 1129.500 256.500 1129.500 248 L 1129.500 239.500 1097.250 239.236 C 1072.479 239.033, 1064.990 238.686, 1064.959 237.736 C 1064.936 237.056, 1064.954 223.195, 1064.998 206.933 C 1065.042 190.671, 1064.787 176.609, 1064.432 175.683 C 1063.897 174.290, 1062.334 174, 1055.357 174 L 1046.929 174 1047.214 210.428 M 1168.500 174.690 C 1164.742 175.655, 1159.764 180.279, 1157.868 184.566 C 1156.111 188.537, 1155.992 191.316, 1156.237 222.674 L 1156.500 256.500 1165 256.500 L 1173.500 256.500 1173.775 240.250 L 1174.050 224 1197.500 224 L 1220.950 224 1221.225 240.250 L 1221.500 256.500 1230 256.500 L 1238.500 256.500 1238.755 222 C 1239.043 183.221, 1239.089 183.512, 1231.659 177.571 L 1227.818 174.500 1199.159 174.338 C 1183.397 174.249, 1169.600 174.407, 1168.500 174.690 M 1265.803 214.703 C 1265.636 237.141, 1265.639 255.838, 1265.809 256.250 C 1265.979 256.663, 1281.634 257, 1300.599 257 C 1332.975 257, 1335.316 256.879, 1338.956 255.023 C 1341.087 253.935, 1343.882 251.573, 1345.166 249.773 C 1347.280 246.808, 1347.531 245.244, 1347.829 233.149 C 1348.143 220.442, 1348.050 219.682, 1345.905 217.399 L 1343.651 215 1345.826 212.686 C 1347.803 210.581, 1348 209.308, 1348 198.646 C 1348 184.965, 1346.495 180.714, 1340.281 176.851 C 1336.525 174.516, 1336.265 174.498, 1301.303 174.203 L 1266.105 173.905 1265.803 214.703 M 1387.214 174.704 C 1383.586 175.410, 1377.349 182.039, 1376.116 186.500 C 1374.716 191.567, 1374.683 206.319, 1376.060 211.277 C 1377.619 216.891, 1382.200 221.561, 1387.442 222.881 C 1390.107 223.552, 1401.514 224, 1415.943 224 L 1440 224 1440 231.500 L 1440 239 1407.461 239 L 1374.922 239 1375.211 247.750 L 1375.500 256.500 1411.074 256.500 L 1446.649 256.500 1450.271 254.017 C 1452.263 252.652, 1454.852 249.829, 1456.024 247.744 C 1457.959 244.301, 1458.124 242.724, 1457.827 230.546 C 1457.472 215.991, 1456.868 214.233, 1450.617 209.562 C 1448.032 207.630, 1446.144 207.468, 1420.679 207 L 1393.500 206.500 1393.206 199.250 L 1392.912 192 1425.495 192 L 1458.078 192 1457.789 183.250 L 1457.500 174.500 1423.500 174.380 C 1404.800 174.314, 1388.471 174.459, 1387.214 174.704 M 160.990 191.250 C 159.172 192.488, 156.743 194.770, 155.592 196.321 C 153.596 199.014, 153.487 200.512, 153.208 229.071 C 153.010 249.312, 153.253 259.027, 153.958 259.083 C 158.826 259.473, 168.135 259.198, 168.684 258.650 C 169.060 258.274, 169.397 252.236, 169.434 245.233 L 169.500 232.500 189 232.500 L 208.500 232.500 209 245.919 L 209.500 259.338 216.250 259.335 C 219.962 259.334, 223.337 258.996, 223.750 258.583 C 224.162 258.170, 224.338 244.708, 224.140 228.666 C 223.742 196.360, 223.652 195.874, 217.257 191.529 L 213.536 189 188.916 189 C 165.030 189, 164.197 189.067, 160.990 191.250 M 254.411 190.891 C 252.713 191.927, 250.350 194.011, 249.161 195.522 C 247.070 198.180, 247 199.128, 247 224.650 L 247 251.029 250.250 254.568 C 252.308 256.808, 254.967 258.444, 257.500 259.029 C 262.977 260.293, 316.736 260.286, 317.167 259.021 C 317.350 258.482, 317.349 255.107, 317.165 251.521 L 316.829 245 289.367 245 L 261.905 245 262.202 238.750 L 262.500 232.500 289.500 232.332 L 316.500 232.164 317 225.574 C 317.275 221.949, 317.350 218.537, 317.167 217.991 C 316.957 217.368, 306.644 217, 289.417 217 L 262 217 262 211 L 262 205 289.500 205 L 317 205 317 197 L 317 189 287.250 189.004 C 259.877 189.007, 257.253 189.158, 254.411 190.891 M 339.667 189.667 C 339.300 190.033, 339 206.008, 339 225.167 L 339 260 346.972 260 L 354.944 260 355.222 246.250 L 355.500 232.500 358.344 232.175 C 360.826 231.890, 362.960 233.606, 375.116 245.650 L 389.044 259.451 399.373 259.833 C 407.429 260.132, 409.813 259.917, 410.203 258.858 C 410.477 258.111, 410.490 254.688, 410.231 251.250 L 409.760 245 403.130 244.981 L 396.500 244.962 390.250 238.885 C 386.813 235.542, 384 232.626, 384 232.404 C 384 232.182, 387.419 232, 391.599 232 C 400.589 232, 405.080 230.225, 407.984 225.526 C 409.691 222.765, 410 220.548, 410 211.082 C 410 198.268, 409.028 195.450, 403.257 191.529 L 399.536 189 369.935 189 C 353.654 189, 340.033 189.300, 339.667 189.667 M 439.481 191.125 C 432.495 196.088, 432.531 195.927, 432.201 223.328 L 431.901 248.156 434.412 252.441 C 438.372 259.197, 439.836 259.500, 468.545 259.500 C 496.319 259.500, 496.979 259.362, 501.044 252.696 C 502.837 249.755, 502.993 247.518, 502.996 224.700 C 503 196.974, 502.797 195.973, 496.257 191.529 L 492.536 189 467.504 189 C 443.586 189, 442.339 189.095, 439.481 191.125 M 534.500 189.943 C 531.125 191.319, 527.078 196.058, 526.018 199.873 C 524.729 204.516, 524.718 217.444, 525.999 222.057 C 526.543 224.013, 528.369 226.938, 530.057 228.557 L 533.127 231.500 556.813 232 L 580.500 232.500 580.798 238.750 L 581.095 245 553.004 245 L 524.912 245 525.206 252.250 L 525.500 259.500 556.178 259.500 C 585.633 259.500, 586.970 259.417, 589.678 257.429 C 594.971 253.544, 596.119 249.770, 595.793 237.320 C 595.545 227.874, 595.179 225.702, 593.429 223.320 C 589.166 217.517, 586.673 217.003, 562.750 217.002 L 541 217 541 211 L 541 205 568.500 205 L 596 205 596 197 L 596 189 566.250 189.063 C 549.888 189.098, 535.600 189.494, 534.500 189.943 M 618.667 189.667 C 618.300 190.033, 618 205.735, 618 224.560 C 618 251.065, 618.282 258.874, 619.250 259.177 C 619.938 259.392, 623.425 259.545, 627 259.516 L 633.500 259.463 634 245.981 L 634.500 232.500 656.640 232.333 C 681.214 232.147, 683.401 231.670, 687.040 225.701 C 688.672 223.026, 688.993 220.643, 688.996 211.200 C 689.001 198.257, 688.042 195.460, 682.257 191.529 L 678.536 189 648.935 189 C 632.654 189, 619.033 189.300, 618.667 189.667 M 718.922 191.274 C 717.066 192.524, 714.518 195.076, 713.259 196.943 C 710.987 200.316, 710.973 200.544, 711.235 229.876 L 711.500 259.413 719 259.457 L 726.500 259.500 726.779 245.702 L 727.057 231.904 746.779 232.202 L 766.500 232.500 767 245.970 L 767.500 259.440 774.500 259.470 L 781.500 259.500 781.767 230 C 781.957 208.975, 781.692 199.676, 780.847 197.633 C 780.195 196.057, 777.870 193.469, 775.680 191.883 L 771.700 189 746.998 189 C 722.960 189, 722.205 189.061, 718.922 191.274 M 814 189.813 C 804.617 194.113, 803.789 197.168, 804.182 226.073 C 804.661 261.335, 802.301 259.373, 844.750 259.816 L 875 260.132 875 252.566 L 875 245 847.500 245 L 820 245 820 225.016 L 820 205.032 847.250 204.766 L 874.500 204.500 874.500 197 L 874.500 189.500 845 189.313 C 828.775 189.210, 814.825 189.435, 814 189.813 M 904.392 191.599 C 897.455 196.097, 897.532 195.756, 897.212 223.500 C 896.889 251.574, 897.272 253.460, 904.113 257.500 C 907.263 259.360, 909.617 259.522, 937.750 259.816 L 968 260.132 968 252.566 L 968 245 940.452 245 L 912.905 245 913.202 238.750 L 913.500 232.500 940.500 232.332 L 967.500 232.164 968 225.496 C 968.330 221.101, 968.106 218.501, 967.344 217.869 C 966.661 217.303, 955.407 216.969, 939.844 217.054 L 913.500 217.198 913.203 211.115 L 912.905 205.032 940.203 204.766 L 967.500 204.500 967.500 197 L 967.500 189.500 937.973 189.235 L 908.445 188.971 904.392 191.599 M 1174.206 199.250 L 1174.500 206.500 1197.750 206.768 L 1221 207.037 1221 199.518 L 1221 192 1197.456 192 L 1173.912 192 1174.206 199.250 M 1283.415 193.362 C 1283.127 194.111, 1283.029 197.374, 1283.196 200.612 L 1283.500 206.500 1307 206.500 L 1330.500 206.500 1330.794 199.250 L 1331.088 192 1307.512 192 C 1288.541 192, 1283.835 192.266, 1283.415 193.362 M 374.750 204.749 L 355 205.042 355 211.021 L 355 217 373.418 217 C 383.548 217, 392.436 217.230, 393.168 217.511 C 394.199 217.907, 394.500 216.439, 394.500 211.011 C 394.500 207.155, 394.500 204.102, 394.500 204.228 C 394.500 204.353, 385.613 204.587, 374.750 204.749 M 653.750 204.749 L 634 205.042 634 210.981 L 634 216.920 653.750 217.210 L 673.500 217.500 673.500 210.750 C 673.500 207.037, 673.500 204.102, 673.500 204.228 C 673.500 204.353, 664.612 204.587, 653.750 204.749 M 1480.607 205.582 C 1480.273 206.452, 1480 209.565, 1480 212.500 C 1480 219.139, 1480.686 221, 1483.132 221 C 1484.463 221, 1485.234 220.082, 1485.650 217.998 L 1486.251 214.995 1690.375 215.248 L 1894.500 215.500 1894.816 218.250 C 1895.033 220.131, 1895.710 221, 1896.959 221 C 1899.314 221, 1900 219.081, 1900 212.500 C 1900 205.919, 1899.314 204, 1896.959 204 C 1895.710 204, 1895.033 204.869, 1894.816 206.750 L 1894.500 209.500 1690.375 209.752 L 1486.251 210.005 1485.650 207.002 C 1484.989 203.695, 1481.688 202.765, 1480.607 205.582 M 169.202 211.050 L 169.500 217.100 189 217.100 L 208.500 217.100 208.798 211.050 L 209.095 205 189 205 L 168.905 205 169.202 211.050 M 448 225.021 L 448 245.042 467.750 244.771 L 487.500 244.500 487.771 224.750 L 488.042 205 468.021 205 L 448 205 448 225.021 M 727 211 L 727 217 747 217 L 767 217 767 211 L 767 205 747 205 L 727 205 727 211 M 1283.415 225.362 C 1283.127 226.111, 1283.029 229.374, 1283.196 232.612 L 1283.500 238.500 1307.250 238.768 L 1331 239.036 1331 231.518 L 1331 224 1307.469 224 C 1288.534 224, 1283.835 224.266, 1283.415 225.362" stroke="none" fill="#fbfbfb" fill-rule="evenodd"/></svg>