<svg xmlns="http://www.w3.org/2000/svg" width="1920" height="467" viewBox="0 0 1920 467" version="1.1"><path d="M 484.472 97 C 484.472 134.125, 484.597 149.313, 484.750 130.750 C 484.902 112.188, 484.902 81.813, 484.750 63.250 C 484.597 44.688, 484.472 59.875, 484.472 97 M 1031.392 43 C 1031.392 50.425, 1031.549 53.462, 1031.742 49.750 C 1031.934 46.038, 1031.934 39.962, 1031.742 36.250 C 1031.549 32.538, 1031.392 35.575, 1031.392 43 M 1167.385 44 C 1167.385 50.875, 1167.545 53.688, 1167.740 50.250 C 1167.936 46.813, 1167.936 41.188, 1167.740 37.750 C 1167.545 34.313, 1167.385 37.125, 1167.385 44 M 620.397 70 C 620.397 77.975, 620.553 81.237, 620.743 77.250 C 620.932 73.263, 620.932 66.737, 620.743 62.750 C 620.553 58.763, 620.397 62.025, 620.397 70 M 512.395 70.500 C 512.396 78.200, 512.553 81.218, 512.743 77.206 C 512.934 73.195, 512.932 66.895, 512.741 63.206 C 512.549 59.518, 512.393 62.800, 512.395 70.500 M 1113.457 97.500 C 1113.456 120.050, 1113.588 129.418, 1113.749 118.317 C 1113.909 107.216, 1113.910 88.766, 1113.749 77.317 C 1113.589 65.868, 1113.457 74.950, 1113.457 97.500 M 438.450 98.500 C 438.451 117.750, 438.585 125.483, 438.749 115.685 C 438.913 105.888, 438.912 90.138, 438.748 80.685 C 438.584 71.233, 438.450 79.250, 438.450 98.500 M 1450.392 81 C 1450.392 88.425, 1450.549 91.463, 1450.742 87.750 C 1450.934 84.037, 1450.934 77.963, 1450.742 74.250 C 1450.549 70.537, 1450.392 73.575, 1450.392 81 M 512.432 141 C 512.432 154.475, 512.574 159.988, 512.747 153.250 C 512.920 146.512, 512.920 135.488, 512.747 128.750 C 512.574 122.013, 512.432 127.525, 512.432 141 M 350.317 137.749 C 361.766 137.910, 380.216 137.909, 391.317 137.749 C 402.418 137.588, 393.050 137.456, 370.500 137.457 C 347.950 137.457, 338.868 137.589, 350.317 137.749 M 599.206 137.741 C 602.895 137.932, 609.195 137.934, 613.206 137.743 C 617.218 137.553, 614.200 137.396, 606.500 137.395 C 598.800 137.393, 595.518 137.549, 599.206 137.741 M 681.250 137.748 C 688.813 137.917, 701.188 137.917, 708.750 137.748 C 716.313 137.578, 710.125 137.439, 695 137.439 C 679.875 137.439, 673.688 137.578, 681.250 137.748 M 761.250 137.748 C 768.813 137.917, 781.188 137.917, 788.750 137.748 C 796.313 137.578, 790.125 137.439, 775 137.439 C 759.875 137.439, 753.688 137.578, 761.250 137.748 M 1046.310 137.748 C 1053.905 137.918, 1066.055 137.918, 1073.310 137.747 C 1080.564 137.576, 1074.350 137.437, 1059.500 137.438 C 1044.650 137.438, 1038.714 137.578, 1046.310 137.748 M 1127.750 137.747 C 1135.037 137.918, 1146.963 137.918, 1154.250 137.747 C 1161.537 137.577, 1155.575 137.437, 1141 137.437 C 1126.425 137.437, 1120.463 137.577, 1127.750 137.747 M 1267.750 137.749 C 1282.737 137.905, 1307.263 137.905, 1322.250 137.749 C 1337.237 137.594, 1324.975 137.466, 1295 137.466 C 1265.025 137.466, 1252.763 137.594, 1267.750 137.749 M 1031.389 151.500 C 1031.390 158.650, 1031.550 161.444, 1031.742 157.708 C 1031.935 153.973, 1031.934 148.123, 1031.739 144.708 C 1031.545 141.294, 1031.387 144.350, 1031.389 151.500 M 1167.378 152 C 1167.378 158.325, 1167.541 160.912, 1167.739 157.750 C 1167.937 154.588, 1167.937 149.412, 1167.739 146.250 C 1167.541 143.088, 1167.378 145.675, 1167.378 152 M 315.250 204.739 C 318.413 204.937, 323.587 204.937, 326.750 204.739 C 329.913 204.541, 327.325 204.378, 321 204.378 C 314.675 204.378, 312.087 204.541, 315.250 204.739 M 691.750 212.737 C 694.638 212.939, 699.362 212.939, 702.250 212.737 C 705.138 212.535, 702.775 212.370, 697 212.370 C 691.225 212.370, 688.862 212.535, 691.750 212.737 M 743.250 213.739 C 746.413 213.937, 751.587 213.937, 754.750 213.739 C 757.913 213.541, 755.325 213.378, 749 213.378 C 742.675 213.378, 740.087 213.541, 743.250 213.739 M 1397.250 227.742 C 1400.963 227.934, 1407.037 227.934, 1410.750 227.742 C 1414.463 227.549, 1411.425 227.392, 1404 227.392 C 1396.575 227.392, 1393.537 227.549, 1397.250 227.742 M 1726.292 234.742 C 1730.027 234.935, 1735.877 234.934, 1739.292 234.739 C 1742.706 234.545, 1739.650 234.387, 1732.500 234.389 C 1725.350 234.390, 1722.556 234.550, 1726.292 234.742 M 1772.206 235.741 C 1775.895 235.932, 1782.195 235.934, 1786.206 235.743 C 1790.218 235.553, 1787.200 235.396, 1779.500 235.395 C 1771.800 235.393, 1768.518 235.549, 1772.206 235.741 M 1821.789 236.741 C 1825.248 236.937, 1830.648 236.936, 1833.789 236.738 C 1836.930 236.540, 1834.100 236.380, 1827.500 236.382 C 1820.900 236.384, 1818.330 236.546, 1821.789 236.741 M 1853.206 237.741 C 1856.895 237.932, 1863.195 237.934, 1867.206 237.743 C 1871.218 237.553, 1868.200 237.396, 1860.500 237.395 C 1852.800 237.393, 1849.518 237.549, 1853.206 237.741 M 1852.750 239.740 C 1856.188 239.936, 1861.813 239.936, 1865.250 239.740 C 1868.688 239.545, 1865.875 239.385, 1859 239.385 C 1852.125 239.385, 1849.313 239.545, 1852.750 239.740 M 1777.750 241.740 C 1781.188 241.936, 1786.813 241.936, 1790.250 241.740 C 1793.688 241.545, 1790.875 241.385, 1784 241.385 C 1777.125 241.385, 1774.313 241.545, 1777.750 241.740 M 1728.750 242.740 C 1732.188 242.936, 1737.813 242.936, 1741.250 242.740 C 1744.688 242.545, 1741.875 242.385, 1735 242.385 C 1728.125 242.385, 1725.313 242.545, 1728.750 242.740 M 1353.250 250.739 C 1356.412 250.937, 1361.588 250.937, 1364.750 250.739 C 1367.912 250.541, 1365.325 250.378, 1359 250.378 C 1352.675 250.378, 1350.088 250.541, 1353.250 250.739 M 1027.206 257.741 C 1030.895 257.932, 1037.195 257.934, 1041.206 257.743 C 1045.218 257.553, 1042.200 257.396, 1034.500 257.395 C 1026.800 257.393, 1023.518 257.549, 1027.206 257.741 M 980.250 258.739 C 983.413 258.937, 988.587 258.937, 991.750 258.739 C 994.913 258.541, 992.325 258.378, 986 258.378 C 979.675 258.378, 977.087 258.541, 980.250 258.739 M 701.250 264.742 C 704.962 264.934, 711.038 264.934, 714.750 264.742 C 718.462 264.549, 715.425 264.392, 708 264.392 C 700.575 264.392, 697.538 264.549, 701.250 264.742 M 655.750 265.740 C 659.188 265.936, 664.813 265.936, 668.250 265.740 C 671.688 265.545, 668.875 265.385, 662 265.385 C 655.125 265.385, 652.313 265.545, 655.750 265.740 M 376.250 271.739 C 379.413 271.937, 384.587 271.937, 387.750 271.739 C 390.913 271.541, 388.325 271.378, 382 271.378 C 375.675 271.378, 373.087 271.541, 376.250 271.739 M 324.250 272.743 C 328.512 272.931, 335.488 272.931, 339.750 272.743 C 344.012 272.556, 340.525 272.402, 332 272.402 C 323.475 272.402, 319.988 272.556, 324.250 272.743 M 348.818 311.749 C 361.093 311.908, 380.893 311.908, 392.818 311.749 C 404.743 311.589, 394.700 311.459, 370.500 311.459 C 346.300 311.460, 336.543 311.590, 348.818 311.749 M 536.250 311.749 C 551.512 311.905, 576.487 311.905, 591.750 311.749 C 607.012 311.594, 594.525 311.467, 564 311.467 C 533.475 311.467, 520.987 311.594, 536.250 311.749 M 695.821 311.749 C 711.398 311.905, 736.598 311.904, 751.821 311.749 C 767.044 311.594, 754.300 311.467, 723.500 311.467 C 692.700 311.467, 680.244 311.594, 695.821 311.749 M 895.818 311.749 C 908.093 311.908, 927.893 311.908, 939.818 311.749 C 951.743 311.589, 941.700 311.459, 917.500 311.459 C 893.300 311.460, 883.543 311.590, 895.818 311.749 M 1083.321 311.749 C 1098.622 311.905, 1123.372 311.905, 1138.321 311.749 C 1153.269 311.594, 1140.750 311.467, 1110.500 311.467 C 1080.250 311.467, 1068.019 311.594, 1083.321 311.749 M 1242.250 311.749 C 1257.513 311.905, 1282.487 311.905, 1297.750 311.749 C 1313.013 311.594, 1300.525 311.467, 1270 311.467 C 1239.475 311.467, 1226.987 311.594, 1242.250 311.749 M 1442.818 311.749 C 1455.093 311.908, 1474.893 311.908, 1486.818 311.749 C 1498.743 311.589, 1488.700 311.459, 1464.500 311.459 C 1440.300 311.460, 1430.543 311.590, 1442.818 311.749 M 1630.250 311.749 C 1645.513 311.905, 1670.487 311.905, 1685.750 311.749 C 1701.013 311.594, 1688.525 311.467, 1658 311.467 C 1627.475 311.467, 1614.987 311.594, 1630.250 311.749 M 1812.321 311.749 C 1827.622 311.905, 1852.372 311.905, 1867.321 311.749 C 1882.269 311.594, 1869.750 311.467, 1839.500 311.467 C 1809.250 311.467, 1797.019 311.594, 1812.321 311.749 M 620.385 324 C 620.385 330.875, 620.545 333.688, 620.740 330.250 C 620.936 326.813, 620.936 321.188, 620.740 317.750 C 620.545 314.313, 620.385 317.125, 620.385 324 M 484.460 379 C 484.460 403.475, 484.590 413.488, 484.749 401.250 C 484.908 389.013, 484.908 368.988, 484.749 356.750 C 484.590 344.513, 484.460 354.525, 484.460 379 M 1031.409 352.500 C 1031.408 361.850, 1031.558 365.810, 1031.743 361.299 C 1031.928 356.789, 1031.929 349.139, 1031.745 344.299 C 1031.562 339.460, 1031.410 343.150, 1031.409 352.500 M 1578.459 379.500 C 1578.460 403.700, 1578.590 413.457, 1578.749 401.182 C 1578.908 388.907, 1578.908 369.107, 1578.749 357.182 C 1578.589 345.257, 1578.459 355.300, 1578.459 379.500 M 350.317 339.749 C 361.766 339.910, 380.216 339.909, 391.317 339.749 C 402.418 339.588, 393.050 339.456, 370.500 339.457 C 347.950 339.457, 338.868 339.589, 350.317 339.749 M 538.750 339.749 C 553.737 339.905, 578.262 339.905, 593.250 339.749 C 608.237 339.594, 595.975 339.466, 566 339.466 C 536.025 339.466, 523.762 339.594, 538.750 339.749 M 714.250 339.749 C 725.663 339.909, 744.338 339.909, 755.750 339.749 C 767.163 339.588, 757.825 339.457, 735 339.457 C 712.175 339.457, 702.837 339.588, 714.250 339.749 M 897.317 339.749 C 908.766 339.910, 927.216 339.909, 938.317 339.749 C 949.418 339.588, 940.050 339.456, 917.500 339.457 C 894.950 339.457, 885.868 339.589, 897.317 339.749 M 1087.320 339.749 C 1102.072 339.905, 1125.922 339.905, 1140.320 339.749 C 1154.719 339.593, 1142.650 339.465, 1113.500 339.466 C 1084.350 339.466, 1072.569 339.593, 1087.320 339.749 M 1262.183 339.749 C 1273.009 339.910, 1291.009 339.910, 1302.183 339.749 C 1313.358 339.588, 1304.500 339.456, 1282.500 339.456 C 1260.500 339.455, 1251.358 339.587, 1262.183 339.749 M 1443.183 339.749 C 1454.009 339.910, 1472.009 339.910, 1483.183 339.749 C 1494.358 339.588, 1485.500 339.456, 1463.500 339.456 C 1441.500 339.455, 1432.358 339.587, 1443.183 339.749 M 1632.179 339.749 C 1646.853 339.905, 1671.153 339.905, 1686.179 339.749 C 1701.206 339.594, 1689.200 339.466, 1659.500 339.466 C 1629.800 339.466, 1617.506 339.593, 1632.179 339.749 M 1814.750 339.749 C 1829.737 339.905, 1854.263 339.905, 1869.250 339.749 C 1884.237 339.594, 1871.975 339.466, 1842 339.466 C 1812.025 339.466, 1799.763 339.594, 1814.750 339.749 M 438.464 391 C 438.464 418.775, 438.592 430.138, 438.749 416.250 C 438.906 402.363, 438.906 379.638, 438.749 365.750 C 438.592 351.863, 438.464 363.225, 438.464 391 M 512.382 352.500 C 512.384 359.100, 512.546 361.670, 512.741 358.211 C 512.937 354.752, 512.936 349.352, 512.738 346.211 C 512.540 343.070, 512.380 345.900, 512.382 352.500 M 985.446 384.500 C 985.447 402.100, 985.583 409.159, 985.749 400.187 C 985.914 391.215, 985.914 376.815, 985.748 368.187 C 985.581 359.559, 985.446 366.900, 985.446 384.500 M 620.389 379.500 C 620.390 386.650, 620.550 389.444, 620.742 385.708 C 620.935 381.973, 620.934 376.123, 620.739 372.708 C 620.545 369.294, 620.387 372.350, 620.389 379.500 M 1167.400 406.500 C 1167.401 414.750, 1167.556 417.992, 1167.744 413.704 C 1167.932 409.417, 1167.931 402.667, 1167.742 398.704 C 1167.552 394.742, 1167.399 398.250, 1167.400 406.500 M 353.250 393.748 C 362.462 393.913, 377.538 393.913, 386.750 393.748 C 395.962 393.583, 388.425 393.448, 370 393.448 C 351.575 393.448, 344.038 393.583, 353.250 393.748 M 544.320 393.749 C 558.521 393.906, 581.471 393.906, 595.320 393.749 C 609.169 393.592, 597.550 393.464, 569.500 393.464 C 541.450 393.465, 530.119 393.593, 544.320 393.749 M 1074.314 393.749 C 1083.561 393.914, 1098.411 393.913, 1107.314 393.748 C 1116.216 393.582, 1108.650 393.447, 1090.500 393.448 C 1072.350 393.448, 1065.066 393.583, 1074.314 393.749 M 1271.750 393.748 C 1281.237 393.913, 1296.763 393.913, 1306.250 393.748 C 1315.737 393.584, 1307.975 393.450, 1289 393.450 C 1270.025 393.450, 1262.263 393.584, 1271.750 393.748 M 1451.311 393.748 C 1459.457 393.916, 1472.507 393.916, 1480.311 393.747 C 1488.115 393.579, 1481.450 393.441, 1465.500 393.441 C 1449.550 393.442, 1443.165 393.580, 1451.311 393.748 M 1814.811 393.748 C 1822.681 393.917, 1835.281 393.917, 1842.811 393.747 C 1850.340 393.578, 1843.900 393.439, 1828.500 393.440 C 1813.100 393.440, 1806.940 393.579, 1814.811 393.748 M 512.385 408 C 512.385 414.875, 512.545 417.688, 512.740 414.250 C 512.936 410.813, 512.936 405.188, 512.740 401.750 C 512.545 398.313, 512.385 401.125, 512.385 408 M 1031.395 433.500 C 1031.396 441.200, 1031.553 444.218, 1031.743 440.206 C 1031.934 436.195, 1031.932 429.895, 1031.741 426.206 C 1031.549 422.518, 1031.393 425.800, 1031.395 433.500" stroke="none" fill="#f4f4f4" fill-rule="evenodd"/><path d="M 242.582 3.188 C 241.929 6.306, 228.271 87.314, 214.881 167.481 C 211.575 187.271, 208.787 203.542, 208.685 203.639 C 208.583 203.737, 172.950 209.708, 129.500 216.908 C 54.973 229.259, 24.036 234.466, 9 237.191 C 2.640 238.344, 2.575 238.387, 6 239.176 C 9.772 240.044, 181.785 269.136, 198.750 271.774 C 204.387 272.651, 209 273.679, 209 274.058 C 209 274.438, 214.422 307.092, 221.050 346.624 C 227.677 386.156, 234.872 429.075, 237.038 442 C 239.204 454.925, 240.982 465.837, 240.988 466.250 C 240.995 466.663, 242.238 466.996, 243.750 466.992 L 246.500 466.984 256.793 405.242 C 273.871 302.806, 278.781 273.884, 279.149 273.548 C 279.342 273.372, 306.950 272.710, 340.500 272.078 C 404.713 270.868, 567.452 267.452, 604 266.548 C 654.249 265.304, 672.215 264.911, 721.500 263.978 C 750.100 263.436, 793.975 262.553, 819 262.016 C 908.339 260.098, 912.575 260.001, 973.500 258.493 C 985.600 258.193, 1019.350 257.507, 1048.500 256.967 C 1077.650 256.428, 1121.075 255.547, 1145 255.010 C 1168.925 254.472, 1211.225 253.575, 1239 253.017 C 1266.775 252.458, 1297.150 251.772, 1306.500 251.493 C 1315.850 251.213, 1346.900 250.544, 1375.500 250.006 C 1404.100 249.467, 1447.525 248.559, 1472 247.989 C 1520.514 246.857, 1615.399 244.826, 1726.500 242.543 C 1765.550 241.740, 1805.150 240.841, 1814.500 240.544 C 1823.850 240.247, 1842.300 239.667, 1855.500 239.253 L 1879.500 238.501 1859.500 237.854 C 1848.500 237.498, 1817.225 236.709, 1790 236.100 C 1762.775 235.492, 1722.275 234.557, 1700 234.023 C 1677.725 233.488, 1647.575 232.811, 1633 232.518 C 1618.425 232.225, 1586.700 231.539, 1562.500 230.994 C 1538.300 230.448, 1484.300 229.336, 1442.500 228.521 C 1400.700 227.707, 1358.850 226.815, 1349.500 226.538 C 1340.150 226.261, 1319.900 225.785, 1304.500 225.480 C 1237.012 224.144, 1059.454 220.359, 1022.500 219.469 C 1010.950 219.191, 968.200 218.300, 927.500 217.489 C 886.800 216.678, 833.475 215.570, 809 215.027 C 784.525 214.483, 752.350 213.803, 737.500 213.515 C 699.417 212.776, 668.970 212.117, 620 210.974 C 596.625 210.428, 555.225 209.534, 528 208.987 C 473.761 207.896, 400.025 206.362, 362.500 205.543 C 349.300 205.255, 325.106 204.731, 308.736 204.379 C 279.485 203.749, 278.964 203.702, 278.491 201.619 C 278.226 200.454, 276.432 189.825, 274.503 178 C 272.575 166.175, 270.757 155.150, 270.464 153.500 C 270.170 151.850, 264.302 116.979, 257.424 76.009 C 250.546 35.039, 244.548 1.148, 244.096 0.696 C 243.645 0.245, 242.963 1.366, 242.582 3.188 M 319 32.061 C 310.395 35.994, 304.807 43.197, 303.060 52.608 C 301.675 60.074, 301.737 135.372, 303.136 142.879 C 304.833 151.992, 309.944 158.556, 318.500 162.611 L 323.500 164.980 369.572 164.990 C 421.099 165.001, 421.718 164.930, 428.932 158.147 C 431.065 156.141, 433.865 152.475, 435.155 150 L 437.500 145.500 437.779 99.096 C 438.087 47.918, 438.006 47.103, 431.919 39.717 C 430.232 37.672, 426.748 34.761, 424.176 33.249 L 419.500 30.500 371.500 30.252 C 324.909 30.012, 323.368 30.065, 319 32.061 M 485 97.500 L 485 165 498.500 165 L 512 165 512 138 L 512 111 519.757 111 L 527.515 111 553.007 136.566 C 567.028 150.628, 579.715 162.778, 581.200 163.566 C 583.256 164.658, 588.188 165, 601.862 165 L 619.823 165 620.172 153.750 C 620.710 136.430, 622.061 138, 606.620 138 L 593.472 138 580.085 124.585 L 566.697 111.170 584.099 110.832 C 603.070 110.463, 604.362 110.133, 611.545 103.826 C 618.814 97.444, 619.461 94.971, 619.825 72.148 C 620.126 53.263, 619.996 51.418, 618.019 46.547 C 615.495 40.328, 610.225 34.889, 604 32.077 C 599.646 30.110, 597.640 30.043, 542.250 30.022 L 485 30 485 97.500 M 667 43.500 L 667 57 693.978 57 L 720.956 57 721.228 97.500 L 721.500 138.001 694.250 138 L 667 138 667 151.500 L 667 165 735 165 L 803 165 803 151.500 L 803 138 775.750 138 L 748.500 138 748.500 97.500 L 748.500 57 775.750 57 L 803 57 803 43.500 L 803 30 735 30 L 667 30 667 43.500 M 849.208 71.262 C 849.486 110.544, 849.596 112.674, 851.500 115.650 C 854.549 120.416, 900.685 159.647, 906.780 162.657 C 911.343 164.910, 912.975 165.199, 918.788 164.783 C 922.489 164.518, 927.011 163.529, 928.838 162.584 C 933.688 160.076, 980.944 119.140, 983.133 115.550 C 984.866 112.707, 984.993 109.700, 984.996 71.250 L 985 30 971 30 L 957 30 957 66.364 L 957 102.728 937.250 119.817 C 920.334 134.453, 917.262 136.733, 915.839 135.703 C 914.925 135.041, 908.003 129.100, 900.455 122.500 C 892.908 115.900, 884.544 108.700, 881.869 106.500 L 877.005 102.500 877.002 66.250 L 877 30 862.958 30 L 848.917 30 849.208 71.262 M 1032 43.500 L 1032 57 1059 57 L 1086 57 1086 97.500 L 1086 138 1059 138 L 1032 138 1032 151.500 L 1032 165 1099.750 165.001 L 1167.500 165.002 1167.271 152.251 C 1167.146 145.238, 1167.033 139.162, 1167.021 138.750 C 1167.010 138.338, 1154.850 138, 1140 138 L 1113 138 1113 97.500 L 1113 57 1140.250 56.999 L 1167.500 56.998 1167.500 43.498 L 1167.500 29.999 1099.750 29.999 L 1032 30 1032 43.500 M 1229.024 32.791 C 1222.201 36.226, 1216.485 43.415, 1214.946 50.495 C 1214.225 53.817, 1213.967 70.635, 1214.179 100.500 C 1214.541 151.231, 1214.257 149.293, 1222.547 157.594 C 1230.050 165.108, 1229.025 165, 1293.178 165 L 1350 165 1350 151.500 L 1350 138 1295.750 138.002 L 1241.500 138.003 1241.804 124.502 L 1242.108 111 1296.054 111 L 1350 111 1350 97.500 L 1350 84 1295.750 84 L 1241.500 84 1241.500 70.500 L 1241.500 57 1295.750 57 L 1350 57 1350 43.500 L 1350 30 1292.250 30.017 L 1234.500 30.034 1229.024 32.791 M 1396 43.500 L 1396 57 1423.484 57 L 1450.968 57 1450.477 111 L 1449.985 165 1463.993 165 L 1478 165 1478 111 L 1478 57 1505 57 L 1532 57 1532 43.500 L 1532 30 1464 30 L 1396 30 1396 43.500 M 330 97.500 L 330 138 370.250 138 L 410.500 138 410.500 97.500 L 410.500 57 370.250 57 L 330 57 330 97.500 M 512 70.500 L 512 84 552.500 84 L 593 84 593 70.500 L 593 57 552.500 57 L 512 57 512 70.500 M 561.500 312 C 504.425 312.492, 503.436 312.534, 499.500 314.662 C 494.184 317.536, 489.569 322.491, 487.079 328 C 485.125 332.321, 485.044 334.375, 485.044 379.500 C 485.044 423.352, 485.170 426.777, 486.922 430.637 C 489.928 437.255, 495.480 442.662, 501.637 444.965 C 506.959 446.957, 508.765 447.009, 563.644 446.758 L 620.168 446.500 620.334 433.250 L 620.500 419.999 566.250 420 L 512 420 512 406.500 L 512 393 565.946 393 L 619.892 393 620.196 379.498 L 620.500 365.997 566.250 365.998 L 512 366 512 352.500 L 512 339 565.893 339 C 608.150 339, 619.863 338.730, 620.143 337.750 C 620.339 337.063, 620.275 330.875, 620 324 L 619.500 311.500 561.500 312 M 1108 312 C 1051.327 312.493, 1050.441 312.531, 1046.432 314.678 C 1041.074 317.546, 1035.696 323.611, 1033.566 329.188 C 1032.101 333.025, 1031.897 336.687, 1032.174 354.174 L 1032.500 374.664 1035.521 379.548 C 1039.048 385.247, 1045.490 390.487, 1050.775 391.954 C 1053.072 392.592, 1070.886 392.991, 1097.250 392.994 L 1140 393 1140 406.500 L 1140 420 1086 420 L 1032 420 1032 433.500 L 1032 447 1089.250 446.990 L 1146.500 446.980 1151.500 444.613 C 1157.549 441.748, 1162.190 437.041, 1164.921 431 C 1166.750 426.956, 1166.956 424.472, 1166.956 406.500 C 1166.956 388.528, 1166.750 386.044, 1164.921 382 C 1162.190 375.959, 1157.549 371.252, 1151.500 368.387 L 1146.500 366.020 1102.750 366.010 L 1059 366 1059 352.500 L 1059 339 1113.250 338.999 L 1167.500 338.997 1167.710 326.088 C 1167.859 316.911, 1167.570 312.936, 1166.710 312.339 C 1166.044 311.878, 1139.625 311.725, 1108 312 M 1837.472 312 L 1780.444 312.500 1775.472 315.058 C 1769.171 318.300, 1763.420 325.714, 1761.946 332.495 C 1761.225 335.817, 1760.967 352.635, 1761.179 382.500 C 1761.541 433.231, 1761.257 431.293, 1769.547 439.594 C 1777.050 447.108, 1776.025 447, 1840.178 447 L 1897 447 1897 433.500 L 1897 420 1842.750 420 L 1788.500 420 1788.500 406.500 L 1788.500 393 1842.750 393 L 1897 393 1897 379.500 L 1897 366 1842.750 366 L 1788.500 366 1788.500 352.500 L 1788.500 339 1842.750 339 L 1897 339 1897 325.607 C 1897 315.750, 1896.670 312.120, 1895.750 311.857 C 1895.063 311.661, 1868.837 311.725, 1837.472 312 M 319 314.081 C 310.192 318.068, 304.629 325.418, 303.033 335.177 C 302.411 338.983, 302.013 362.501, 302.033 394.250 L 302.067 447 316.033 447 L 330 447 330 420 L 330 393 370.250 392.999 L 410.500 392.998 410.204 419.999 L 409.908 447 423.978 447 L 438.047 447 437.774 389.250 L 437.500 331.500 435.026 326.657 C 432.177 321.078, 427.386 316.534, 421.565 313.890 C 417.797 312.179, 414.063 312.044, 370.500 312.044 C 325.355 312.044, 323.322 312.124, 319 314.081 M 667 379.477 L 667 447 681.031 447 L 695.063 447 694.781 419.999 L 694.500 392.999 702.077 392.999 L 709.654 393 735.014 418.475 C 748.962 432.486, 761.821 444.636, 763.588 445.475 C 766.101 446.667, 770.752 447, 784.901 447 L 803 447 803 433.500 L 803 420 789.748 420 L 776.496 420 762.911 406.563 L 749.325 393.125 766.412 392.813 C 785.680 392.460, 787.937 391.828, 794.948 384.816 C 801.692 378.073, 803 372.823, 803 352.500 C 803 332.395, 801.691 327.014, 795.164 320.288 C 787.243 312.127, 790.777 312.534, 725.250 312.227 L 667 311.953 667 379.477 M 865.500 314.366 C 860.107 316.897, 856.093 320.466, 853.097 325.393 C 849.231 331.751, 848.834 337.589, 849.174 383 C 849.499 426.326, 849.509 426.518, 851.835 431 C 855.197 437.477, 860.529 442.577, 866.455 444.982 C 871.476 447.020, 872.869 447.068, 919.056 446.788 C 972.028 446.466, 969.154 446.846, 976.836 439.164 C 984.784 431.216, 984.500 433.429, 984.500 379.500 L 984.500 331.500 982.026 326.657 C 979.177 321.078, 974.386 316.534, 968.565 313.890 C 964.799 312.180, 961.048 312.043, 917.500 312.032 L 870.500 312.020 865.500 314.366 M 1214 379.500 L 1214 447 1228.031 447 L 1242.063 447 1241.781 420.038 L 1241.500 393.075 1286 392.788 C 1329.435 392.507, 1330.596 392.448, 1334.500 390.338 C 1338.625 388.108, 1343.468 383.401, 1346.199 378.970 C 1349.249 374.020, 1350.227 365.986, 1349.849 348.981 C 1349.525 334.387, 1349.227 331.978, 1347.247 327.945 C 1344.245 321.830, 1339.546 317.186, 1333.500 314.358 L 1328.500 312.020 1271.250 312.010 L 1214 312 1214 379.500 M 1412.500 314.455 C 1406.518 317.369, 1405.267 318.375, 1401.634 323.194 C 1396.204 330.394, 1396.025 332.599, 1396.012 392.250 L 1396 447 1410 447 L 1424 447 1424 420 L 1424 393 1464.250 392.999 L 1504.500 392.999 1504.219 419.999 L 1503.937 447 1517.969 447 L 1532 447 1532 390.678 C 1532 328.193, 1532.071 328.948, 1525.443 321.205 C 1523.547 318.989, 1519.658 316.012, 1516.801 314.588 L 1511.607 312 1464.554 312.010 L 1417.500 312.020 1412.500 314.455 M 1594.500 314.353 C 1588.489 317.158, 1582.892 323.095, 1580.602 329.096 C 1579.098 333.038, 1578.952 338.480, 1579.211 381 C 1579.495 427.691, 1579.537 428.570, 1581.691 432.595 C 1584.425 437.704, 1589.942 442.617, 1595.730 445.099 C 1599.917 446.893, 1603.374 447, 1657.333 446.999 L 1714.500 446.998 1714.500 433.499 L 1714.500 420 1660.250 420 L 1606 420 1606 379.500 L 1606 339 1660.250 338.998 L 1714.500 338.995 1714.540 325.498 L 1714.580 312 1657.040 312.010 L 1599.500 312.020 1594.500 314.353 M 330 352.500 L 330 366 370.250 366 L 410.500 366 410.500 352.500 L 410.500 339 370.250 339 L 330 339 330 352.500 M 694.804 352.498 L 695.108 366 735 366 L 774.892 366 775.196 352.498 L 775.500 338.997 735 338.997 L 694.500 338.997 694.804 352.498 M 877 379.500 L 877 420 917.250 420 L 957.500 420 957.500 379.500 L 957.500 339 917.250 339 L 877 339 877 379.500 M 1241.804 352.498 L 1242.108 366 1282.054 366 L 1322 366 1322 352.500 L 1322 339 1281.750 338.998 L 1241.500 338.997 1241.804 352.498 M 1424 352.500 L 1424 366 1464.250 366 L 1504.500 366 1504.500 352.500 L 1504.500 339 1464.250 339 L 1424 339 1424 352.500" stroke="none" fill="#fcfcfc" fill-rule="evenodd"/></svg>